<svg width="255" height="88" viewBox="0 0 255 88" fill="none" xmlns="http://www.w3.org/2000/svg">
<g filter="url(#filter0_d_403_100)">
<path d="M31.3278 74.5557C31.3278 75.8636 30.914 76.9313 30.0866 77.7588C29.2858 78.5863 28.2314 79 26.9235 79H11.1481C9.84014 79 8.75909 78.5863 7.90492 77.7588C7.07745 76.9313 6.66371 75.8636 6.66371 74.5557V58.6602H12.2291V74.0752H25.7623V59.1406L8.46547 38.2402C7.2643 36.7988 6.66371 35.2106 6.66371 33.4756V20.7832C6.66371 19.4753 7.07745 18.4076 7.90492 17.5801C8.75909 16.7526 9.84014 16.3389 11.1481 16.3389H26.9235C28.2314 16.3389 29.2858 16.7526 30.0866 17.5801C30.914 18.4076 31.3278 19.4753 31.3278 20.7832V35.3574H25.7623V21.2637H12.2291V34.4766L29.6061 55.377C30.7539 56.765 31.3278 58.3265 31.3278 60.0615V74.5557ZM70.1384 21.2637H60.449V79H54.8836V21.2637H45.114V16.3389H70.1384V21.2637ZM109.309 79H103.784L101.582 65.0664H89.1298L86.9276 79H81.5624V78.8398L92.7333 16.1787H98.2186L109.309 79ZM100.861 60.1416L95.3759 26.1885L89.8505 60.1416H100.861ZM144.276 79H124.257V16.3389H129.822V74.0752H144.276V79ZM184.528 74.5557C184.528 75.8636 184.101 76.9313 183.247 77.7588C182.393 78.5863 181.312 79 180.004 79H163.508C162.2 79 161.132 78.5863 160.305 77.7588C159.504 76.9313 159.104 75.8636 159.104 74.5557V54.1357C159.104 52.3473 159.784 51.0127 161.146 50.1318L167.232 46.208L161.306 42.5244C159.944 41.6702 159.264 40.3223 159.264 38.4805V20.7832C159.264 19.4753 159.678 18.4076 160.505 17.5801C161.332 16.7526 162.4 16.3389 163.708 16.3389H179.924C181.232 16.3389 182.3 16.7526 183.127 17.5801C183.955 18.4076 184.368 19.4753 184.368 20.7832V38.4805C184.368 40.3223 183.674 41.6702 182.286 42.5244L176.401 46.208L182.366 50.1318C183.808 51.0661 184.528 52.4007 184.528 54.1357V74.5557ZM178.763 39.2412V21.2637H164.829V39.2412L171.796 43.8857L178.763 39.2412ZM178.923 74.0752V53.335L171.796 48.6504L164.669 53.335V74.0752H178.923ZM208.284 79H202.679V35.5576H200.237V35.3574L203.76 16.3389H208.284V79ZM249.377 79H224.513V76.0371L243.692 36.1982V21.2637H230.919V35.3574H225.314V20.7832C225.314 19.4753 225.728 18.4076 226.555 17.5801C227.383 16.7526 228.45 16.3389 229.758 16.3389H244.853C246.161 16.3389 247.229 16.7526 248.056 17.5801C248.883 18.4076 249.297 19.4753 249.297 20.7832V34.0762C249.297 35.6777 248.803 37.5062 247.816 39.5615L231.24 74.0752H249.377V79Z" fill="#003477"/>
</g>
<defs>
<filter id="filter0_d_403_100" x="2.6637" y="14.1787" width="250.714" height="70.8213" filterUnits="userSpaceOnUse" color-interpolation-filters="sRGB">
<feFlood flood-opacity="0" result="BackgroundImageFix"/>
<feColorMatrix in="SourceAlpha" type="matrix" values="0 0 0 0 0 0 0 0 0 0 0 0 0 0 0 0 0 0 127 0" result="hardAlpha"/>
<feOffset dy="2"/>
<feGaussianBlur stdDeviation="2"/>
<feComposite in2="hardAlpha" operator="out"/>
<feColorMatrix type="matrix" values="0 0 0 0 0 0 0 0 0 0 0 0 0 0 0 0 0 0 0.25 0"/>
<feBlend mode="normal" in2="BackgroundImageFix" result="effect1_dropShadow_403_100"/>
<feBlend mode="normal" in="SourceGraphic" in2="effect1_dropShadow_403_100" result="shape"/>
</filter>
</defs>
</svg>
